<?xml version="1.0" encoding="UTF-8"?>
<svg id="Calque_1" data-name="Calque 1" xmlns="http://www.w3.org/2000/svg" viewBox="0 0 83.04 19.66">
  <defs>
    <style>
      .cls-1 {
        letter-spacing: 0em;
      }

      .cls-2 {
        letter-spacing: 0em;
      }

      .cls-3 {
        letter-spacing: -.04em;
      }

      .cls-4 {
        fill: #fff;
      }

      .cls-4, .cls-5 {
        stroke-width: 0px;
      }

      .cls-6 {
        fill: #414244;
        font-family: MyriadPro-Regular, 'Myriad Pro';
        font-size: 5.74px;
      }

      .cls-7 {
        fill: #3262ac;
        font-family: Roboto-Black, 'Roboto Black';
        font-size: 14.45px;
        font-weight: 800;
      }

      .cls-8 {
        letter-spacing: -.01em;
      }

      .cls-9 {
        letter-spacing: -.01em;
      }

      .cls-5 {
        fill: #5666ad;
      }
    </style>
  </defs>
  <text class="cls-7" transform="translate(19.89 12.36)"><tspan class="cls-3" x="0" y="0">T</tspan><tspan x="8.48" y="0">er</tspan><tspan class="cls-8" x="21.83" y="0">r</tspan><tspan x="27.09" y="0">aca</tspan><tspan class="cls-2" x="49.94" y="0">r</tspan><tspan class="cls-1" x="55.28" y="0">e</tspan></text>
  <text class="cls-6" transform="translate(20.14 18.22)"><tspan x="0" y="0">Dashboa</tspan><tspan class="cls-9" x="21.24" y="0">r</tspan><tspan x="23.06" y="0">d panel</tspan></text>
  <g>
    <rect class="cls-5" x="5.3" y=".84" width="7.37" height="17.97"/>
    <rect class="cls-5" y="6.14" width="17.97" height="7.37"/>
    <path class="cls-4" d="M0,12.88c1.76-.87,3.58-1.57,5.3-1.9,1.36-.26,2.66-.29,3.81.03.63.17,1.29.25,1.95.25.53,0,1.06-.05,1.6-.14,1.77-.3,3.59-1.07,5.3-2.04v-1.23c-1.72,1.03-3.55,1.87-5.3,2.2-1.14.22-2.24.22-3.27-.06-1.25-.34-2.65-.33-4.09-.08C3.57,10.21,1.75,10.87,0,11.7v1.18Z"/>
  </g>
</svg>