<?xml version="1.0" encoding="UTF-8"?>
<svg id="Calque_1" data-name="Calque 1" xmlns="http://www.w3.org/2000/svg" viewBox="0 0 83.29 19.66">
  <defs>
    <style>
      .cls-1 {
        letter-spacing: -.01em;
      }

      .cls-2 {
        letter-spacing: 0em;
      }

      .cls-3 {
        letter-spacing: 0em;
      }

      .cls-4 {
        letter-spacing: 0em;
      }

      .cls-5 {
        letter-spacing: -.04em;
      }

      .cls-6 {
        fill: #fff;
      }

      .cls-6, .cls-7 {
        stroke-width: 0px;
      }

      .cls-8 {
        letter-spacing: 0em;
      }

      .cls-9 {
        letter-spacing: 0em;
      }

      .cls-10 {
        fill: #414244;
        font-family: MyriadPro-Regular, 'Myriad Pro';
        font-size: 5.74px;
      }

      .cls-7 {
        fill: #5666ad;
      }

      .cls-11 {
        fill: #3262ac;
        font-family: Roboto-Black, 'Roboto Black';
        font-size: 14.45px;
        font-weight: 800;
      }

      .cls-12 {
        letter-spacing: 0em;
      }

      .cls-13 {
        letter-spacing: 0em;
      }

      .cls-14 {
        letter-spacing: 0em;
      }
    </style>
  </defs>
  <text class="cls-11" transform="translate(19.89 12.36)"><tspan class="cls-5" x="0" y="0">T</tspan><tspan x="8.48" y="0">er</tspan><tspan class="cls-1" x="21.83" y="0">r</tspan><tspan x="27.09" y="0">aca</tspan><tspan class="cls-12" x="49.94" y="0">r</tspan><tspan class="cls-9" x="55.28" y="0">e</tspan></text>
  <text class="cls-10" transform="translate(20.14 18.22)"><tspan class="cls-13" x="0" y="0">A</tspan><tspan x="3.5" y="0">ppoi</tspan><tspan class="cls-4" x="14.53" y="0">n</tspan><tspan x="17.69" y="0">tme</tspan><tspan class="cls-14" x="27.26" y="0">n</tspan><tspan x="30.42" y="0">t &amp; </tspan><tspan class="cls-3" x="38.23" y="0">A</tspan><tspan x="41.71" y="0">ssistan</tspan><tspan class="cls-2" x="57.73" y="0">c</tspan><tspan class="cls-8" x="60.27" y="0">e</tspan></text>
  <g>
    <rect class="cls-7" x="5.3" y=".84" width="7.37" height="17.97"/>
    <rect class="cls-7" y="6.14" width="17.97" height="7.37"/>
    <path class="cls-6" d="M0,12.88c1.76-.87,3.58-1.57,5.3-1.9,1.36-.26,2.66-.29,3.81.03.63.17,1.29.25,1.95.25.53,0,1.06-.05,1.6-.14,1.77-.3,3.59-1.07,5.3-2.04v-1.23c-1.72,1.03-3.55,1.87-5.3,2.2-1.14.22-2.24.22-3.27-.06-1.25-.34-2.65-.33-4.09-.08C3.57,10.21,1.75,10.87,0,11.7v1.18Z"/>
  </g>
</svg>