<?xml version="1.0" encoding="UTF-8"?>
<svg version="1.1" xmlns="http://www.w3.org/2000/svg" width="134" height="34">
<path d="M0 0 C8.33333333 0 16.66666667 0 25 0 C26.134375 -0.061875 27.26875 -0.12375 28.4375 -0.1875 C32 0 32 0 33.9375 1.5 C34.288125 1.995 34.63875 2.49 35 3 C35.66 2.01 36.32 1.02 37 0 C38.32 0 39.64 0 41 0 C41.66 1.65 42.32 3.3 43 5 C43.33 4.67 43.66 4.34 44 4 C45.51928038 3.92820036 47.04167482 3.91607993 48.5625 3.9375 C49.38878906 3.94652344 50.21507812 3.95554687 51.06640625 3.96484375 C51.70449219 3.97644531 52.34257813 3.98804688 53 4 C53 6.64 53 9.28 53 12 C55.97 12 58.94 12 62 12 C62 14.97 62 17.94 62 21 C59.36 21 56.72 21 54 21 C54 23.64 54 26.28 54 29 C51.03 29 48.06 29 45 29 C45 26.36 45 23.72 45 21 C42.03 21 39.06 21 36 21 C36 18.03 36 15.06 36 12 C38.64 12 41.28 12 44 12 C44 11.01 44 10.02 44 9 C32.12 9 20.24 9 8 9 C8 7.02 8 5.04 8 3 C7.34 3 6.68 3 6 3 C6 4.98 6 6.96 6 9 C4.68 9 3.36 9 2 9 C2 7.02 2 5.04 2 3 C1.34 3 0.68 3 0 3 C0 2.01 0 1.02 0 0 Z M15 3 C16 6 16 6 16 6 Z M24 5 C25 8 25 8 25 8 Z M33 5 C34 8 34 8 34 8 Z " fill="#3263AC" transform="translate(41,5)"/>
<path d="M0 0 C8.33333333 0 16.66666667 0 25 0 C26.134375 -0.061875 27.26875 -0.12375 28.4375 -0.1875 C32 0 32 0 33.9375 1.5 C34.288125 1.995 34.63875 2.49 35 3 C35.66 2.01 36.32 1.02 37 0 C38.32 0 39.64 0 41 0 C41.99 2.97 42.98 5.94 44 9 C32.12 9 20.24 9 8 9 C8 7.02 8 5.04 8 3 C7.34 3 6.68 3 6 3 C6 4.98 6 6.96 6 9 C4.68 9 3.36 9 2 9 C2 7.02 2 5.04 2 3 C1.34 3 0.68 3 0 3 C0 2.01 0 1.02 0 0 Z M15 3 C16 6 16 6 16 6 Z M24 5 C25 8 25 8 25 8 Z M33 5 C34 8 34 8 34 8 Z " fill="#181A1E" transform="translate(41,5)"/>
<path d="M0 0 C0.94875 0.04125 1.8975 0.0825 2.875 0.125 C2.875 1.445 2.875 2.765 2.875 4.125 C1.555 3.795 0.235 3.465 -1.125 3.125 C-1.125 4.115 -1.125 5.105 -1.125 6.125 C1.28377257 6.01158466 1.28377257 6.01158466 3.875 5.125 C4.88687895 3.46551852 5.8876546 1.79919438 6.875 0.125 C8.195 0.125 9.515 0.125 10.875 0.125 C11.535 1.775 12.195 3.425 12.875 5.125 C13.205 3.475 13.535 1.825 13.875 0.125 C16.20794775 0.08258277 18.54202567 0.08407063 20.875 0.125 C21.875 1.125 21.875 1.125 21.9375 4.1875 C21.916875 5.156875 21.89625 6.12625 21.875 7.125 C22.205 4.815 22.535 2.505 22.875 0.125 C25.185 0.125 27.495 0.125 29.875 0.125 C29.875 3.095 29.875 6.065 29.875 9.125 C25.21192986 9.17437279 20.54901127 9.21070627 15.88574219 9.23486328 C14.29880117 9.24493188 12.71187875 9.25858767 11.125 9.27587891 C8.84630753 9.30009001 6.56785994 9.31147422 4.2890625 9.3203125 C3.57755035 9.33063507 2.86603821 9.34095764 2.13296509 9.35159302 C0.37868335 9.35199422 -1.37496709 9.24702209 -3.125 9.125 C-5.125 7.125 -5.125 7.125 -5.375 4.625 C-4.98192433 0.69424327 -3.8631953 0.15452781 0 0 Z " fill="#181A1E" transform="translate(46.125,15.875)"/>
<path d="M0 0 C2.97 0 5.94 0 9 0 C9.52666228 5.26662278 9.52666228 5.26662278 9 8 C6.125 10.1875 6.125 10.1875 3 12 C1.58809436 14.60437233 1.58809436 14.60437233 1 17 C-1.97 17 -4.94 17 -8 17 C-8 14.03 -8 11.06 -8 8 C-5.36 8 -2.72 8 0 8 C0 5.36 0 2.72 0 0 Z " fill="#4BBAEB" transform="translate(85,9)"/>
</svg>
